<?xml version="1.0" standalone="no"?>
    <!DOCTYPE svg>
    <svg version="1.0" xmlns="http://www.w3.org/2000/svg" width="1865.000000pt" height="2156.000000pt" viewBox="0 0 1865.000000 2156.000000" preserveAspectRatio="xMidYMid meet">
        <metadata>
            Created by potrace 1.15, written by Peter Selinger 2001-2017
        </metadata>
        <g transform="translate(0.000000,2156.000000) scale(0.100000,-0.100000)" fill="#878786" stroke="none">
            <path d="M1240 21545 c-183 -34 -398 -119 -541 -215 -333 -224 -556 -566 -625
-960 -18 -102 -19 -362 -19 -8105 0 -7698 1 -8004 18 -8105 105 -603 572
-1070 1177 -1176 102 -18 362 -19 8110 -19 7508 0 8011 1 8095 17 150 29 264
66 390 127 404 198 688 561 782 1001 17 82 18 403 18 8155 0 7767 -1 8073 -18
8155 -27 123 -61 220 -121 345 -200 409 -591 701 -1045 780 -122 22 -16104 21
-16221 0z m8535 -2295 c800 -51 1536 -221 2272 -526 211 -86 619 -290 823
-410 1795 -1052 3028 -2822 3379 -4854 74 -426 96 -700 96 -1195 0 -416 -6
-522 -46 -855 -128 -1063 -507 -2091 -1104 -2995 -697 -1055 -1656 -1895
-2795 -2449 -760 -369 -1540 -586 -2425 -673 -257 -25 -982 -25 -1240 0 -1513
148 -2846 718 -3985 1705 -166 144 -499 475 -643 639 -1038 1188 -1636 2629
-1737 4188 -13 206 -13 678 1 881 102 1556 689 2978 1717 4164 146 169 466
490 637 640 660 579 1396 1018 2215 1323 613 228 1290 371 1970 416 184 12
681 13 865 1z" fill="#ef8160" />
            <path d="M9040 16969 c-1282 -86 -2479 -699 -3309 -1694 -729 -875 -1118
-1993 -1088 -3125 20 -700 175 -1336 476 -1947 245 -497 525 -888 911 -1273
817 -814 1873 -1292 3028 -1370 708 -47 1473 83 2127 362 260 111 551 267 763
409 l82 56 -1732 1525 c-953 839 -1758 1552 -1789 1586 -136 146 -235 344
-276 549 -23 119 -23 329 1 443 138 652 781 1047 1424 875 115 -31 217 -77
324 -148 52 -34 727 -621 1817 -1580 953 -840 1737 -1527 1741 -1527 12 0 136
268 204 442 434 1106 432 2329 -4 3438 -751 1904 -2662 3116 -4700 2979z" fill="#ef8160" />
            <path d="M775 1780 c-206 -29 -371 -108 -513 -244 -112 -107 -199 -249 -238
-391 -26 -92 -31 -341 -9 -447 34 -167 106 -308 223 -430 133 -140 285 -219
484 -254 126 -22 350 -15 463 15 101 27 242 94 322 155 60 46 153 140 153 156
0 4 -30 31 -67 58 l-68 50 -60 -57 c-168 -160 -352 -229 -579 -218 -134 7
-204 24 -316 79 -110 54 -246 186 -302 293 -69 132 -96 284 -78 432 21 172 79
291 200 413 154 155 351 230 570 217 123 -7 193 -26 309 -83 75 -37 110 -62
174 -125 44 -44 82 -79 85 -79 9 0 132 102 132 109 0 17 -126 144 -184 185
-154 110 -316 163 -519 170 -67 3 -149 1 -182 -4z" />
            <path d="M5566 1779 c-106 -14 -183 -37 -275 -80 -263 -123 -448 -367 -492
-649 -16 -102 -6 -304 19 -401 81 -308 311 -539 617 -620 113 -30 337 -37 462
-15 114 20 236 63 326 117 74 44 227 182 227 205 0 7 -30 36 -67 64 l-66 50
-66 -63 c-153 -148 -324 -217 -537 -217 -326 0 -600 190 -700 485 -36 108 -45
276 -19 391 57 261 258 469 520 539 139 37 317 29 458 -20 99 -34 170 -80 264
-169 l83 -79 65 49 c35 27 65 54 65 61 0 19 -82 109 -148 162 -111 89 -233
147 -376 177 -90 19 -271 26 -360 13z" />
            <path d="M10165 1779 c-195 -28 -414 -146 -531 -285 -93 -112 -150 -216 -191
-351 -24 -80 -27 -103 -27 -253 0 -130 3 -179 18 -230 72 -258 244 -464 481
-575 122 -58 197 -76 345 -82 287 -12 481 60 676 252 119 117 178 211 226 355
27 83 31 113 36 239 8 229 -31 380 -139 541 -193 289 -540 440 -894 389z m290
-184 c144 -31 313 -134 406 -249 106 -131 153 -268 153 -451 0 -162 -37 -292
-116 -408 l-24 -35 -259 229 c-238 209 -263 229 -297 229 -42 0 -78 -35 -78
-76 0 -32 21 -53 285 -285 127 -110 230 -206 230 -213 0 -18 -145 -100 -220
-125 -201 -65 -416 -44 -592 60 -74 43 -208 178 -251 251 -133 225 -127 528
14 755 90 145 273 277 439 317 79 19 223 19 310 1z" />
            <path d="M1990 890 l0 -850 90 0 90 0 0 410 0 410 425 0 425 0 0 -410 0 -410
90 0 90 0 0 850 0 850 -90 0 -90 0 0 -355 0 -355 -425 0 -425 0 0 355 0 355
-90 0 -90 0 0 -850z" />
            <path d="M3600 890 l0 -850 490 0 490 0 0 90 0 90 -400 0 -400 0 0 325 0 325
400 0 400 0 0 90 0 90 -400 0 -400 0 0 260 0 260 400 0 400 0 0 85 0 85 -490
0 -490 0 0 -850z" />
            <path d="M6780 890 l0 -850 95 0 95 0 2 385 3 386 363 -386 362 -385 115 0
c63 0 115 4 115 8 0 4 -193 214 -430 466 -236 252 -430 461 -430 465 0 4 181
176 401 382 l401 374 -121 3 -122 3 -327 -308 -327 -308 -3 308 -2 307 -95 0
-95 0 0 -850z" />
            <path d="M11543 1093 c3 -571 5 -656 20 -712 62 -233 275 -381 548 -381 109 0
176 13 258 52 85 41 187 142 229 228 64 131 65 140 69 833 l4 627 -90 0 -91 0
0 -599 c0 -360 -4 -619 -10 -651 -33 -175 -165 -301 -331 -316 -83 -8 -153 7
-242 54 -79 41 -128 93 -159 171 -23 56 -23 58 -26 699 l-3 642 -90 0 -90 0 4
-647z" />
            <path d="M13333 908 c-216 -458 -395 -841 -399 -851 -6 -15 3 -17 93 -17 l100
0 133 280 133 280 360 -2 360 -3 131 -275 132 -275 97 -3 c53 -1 97 1 97 5 0
4 -177 386 -393 848 -386 826 -393 840 -422 843 l-30 2 -392 -832z m561 159
c75 -159 136 -290 136 -293 0 -2 -124 -4 -275 -4 -151 0 -275 4 -275 8 0 5 57
127 126 273 69 145 130 275 135 288 5 13 11 22 14 20 2 -2 65 -134 139 -292z" />
            <path d="M14820 890 l0 -850 415 0 415 0 0 85 0 85 -325 0 -325 0 0 765 0 765
-90 0 -90 0 0 -850z" />
            <path d="M15890 890 l0 -850 90 0 90 0 0 850 0 850 -90 0 -90 0 0 -850z" />
            <path d="M16280 1655 l0 -85 190 0 190 0 0 -765 0 -765 90 0 90 0 0 765 0 765
190 0 190 0 0 85 0 85 -470 0 -470 0 0 -85z" />
            <path d="M17323 1728 c3 -7 125 -206 271 -442 l266 -429 0 -409 0 -408 90 0
90 0 0 405 0 404 269 443 269 443 -96 3 c-53 1 -101 1 -107 -2 -6 -2 -103
-155 -216 -340 -112 -184 -206 -336 -209 -336 -3 0 -99 153 -215 340 l-210
340 -104 0 c-78 0 -102 -3 -98 -12z" />
            <path d="M8872 1640 c-56 -44 -104 -80 -107 -80 -3 0 -5 12 -5 26 0 93 -93
148 -185 110 -48 -20 -62 -56 -71 -179 l-7 -107 242 0 241 0 0 25 0 25 -110 0
c-60 0 -110 4 -110 9 0 5 49 46 109 92 105 80 110 86 110 122 1 20 0 37 -1 37
-2 0 -49 -36 -106 -80z m-207 4 c27 -11 45 -60 45 -124 l0 -60 -76 0 -76 0 4
76 c3 65 7 79 27 95 24 20 47 24 76 13z" />
            <path d="M8500 1271 l0 -31 185 0 185 0 32 -29 c24 -22 32 -37 32 -63 0 -43
-26 -86 -60 -98 -14 -6 -104 -10 -200 -10 l-174 0 0 -31 0 -31 193 4 c170 3
196 5 226 23 93 55 96 212 4 272 -23 15 -55 18 -225 21 l-198 4 0 -31z" />
            <path d="M8657 886 c-126 -47 -191 -178 -153 -309 34 -116 133 -183 256 -175
36 3 79 12 97 21 40 21 89 70 110 110 20 40 28 141 14 193 -14 51 -71 119
-124 146 -52 26 -149 33 -200 14z m174 -69 c107 -57 136 -188 62 -285 -47 -62
-145 -90 -220 -61 -63 23 -123 108 -123 174 0 143 155 238 281 172z" />
            <path d="M8500 320 c0 -26 9 -34 90 -82 49 -29 88 -57 87 -61 -1 -4 -41 -32
-87 -61 -76 -47 -85 -56 -88 -86 -4 -41 -3 -41 143 50 l111 70 112 0 112 0 0
30 0 30 -115 0 -114 0 -116 70 c-64 39 -120 70 -125 70 -6 0 -10 -13 -10 -30z" />
        </g>
    </svg>
